<svg width="18" height="20" viewBox="0 0 18 20" fill="none" xmlns="http://www.w3.org/2000/svg">
<path d="M8.55902 15.3092C8.27422 15.3092 7.99581 15.3937 7.759 15.5519C7.52219 15.7101 7.33762 15.935 7.22863 16.1981C7.11964 16.4613 7.09113 16.7508 7.14669 17.0301C7.20225 17.3095 7.3394 17.5661 7.54079 17.7674C7.74217 17.9688 7.99876 18.106 8.27809 18.1615C8.55742 18.2171 8.84696 18.1886 9.11009 18.0796C9.37321 17.9706 9.59811 17.786 9.75634 17.5492C9.91457 17.3124 9.99902 17.034 9.99902 16.7492C9.99902 16.3673 9.84731 16.001 9.57726 15.731C9.3072 15.4609 8.94093 15.3092 8.55902 15.3092ZM8.55902 17.4692C8.41662 17.4692 8.27741 17.427 8.15901 17.3479C8.04061 17.2687 7.94832 17.1563 7.89383 17.0247C7.83933 16.8932 7.82507 16.7484 7.85285 16.6087C7.88064 16.4691 7.94921 16.3408 8.0499 16.2401C8.1506 16.1394 8.27889 16.0708 8.41856 16.043C8.55822 16.0153 8.70299 16.0295 8.83455 16.084C8.96612 16.1385 9.07857 16.2308 9.15768 16.3492C9.23679 16.4676 9.27902 16.6068 9.27902 16.7492C9.2776 16.9392 9.20111 17.121 9.06624 17.2548C8.93137 17.3887 8.74905 17.4638 8.55902 17.4638V17.4692Z" fill="black"/>
<path d="M13.8277 15.3092C13.5429 15.3092 13.2645 15.3937 13.0277 15.5519C12.7909 15.7101 12.6063 15.935 12.4973 16.1981C12.3883 16.4613 12.3598 16.7508 12.4154 17.0301C12.4709 17.3095 12.6081 17.5661 12.8095 17.7674C13.0108 17.9688 13.2674 18.106 13.5468 18.1615C13.8261 18.2171 14.1156 18.1886 14.3788 18.0796C14.6419 17.9706 14.8668 17.786 15.025 17.5492C15.1832 17.3124 15.2677 17.034 15.2677 16.7492C15.2677 16.3673 15.116 16.001 14.8459 15.731C14.5759 15.4609 14.2096 15.3092 13.8277 15.3092ZM13.8277 17.4692C13.6853 17.4692 13.5461 17.427 13.4277 17.3479C13.3093 17.2687 13.217 17.1563 13.1625 17.0247C13.108 16.8932 13.0937 16.7484 13.1215 16.6087C13.1493 16.4691 13.2179 16.3408 13.3186 16.2401C13.4193 16.1394 13.5476 16.0708 13.6872 16.043C13.8269 16.0153 13.9717 16.0295 14.1032 16.084C14.2348 16.1385 14.3472 16.2308 14.4264 16.3492C14.5055 16.4676 14.5477 16.6068 14.5477 16.7492C14.5463 16.9392 14.4698 17.121 14.3349 17.2548C14.2 17.3887 14.0177 17.4638 13.8277 17.4638V17.4692Z" fill="black"/>
<path d="M15.975 13.115L17.4312 6.6134C17.4693 6.44341 17.4686 6.26704 17.4293 6.09733C17.39 5.92763 17.3131 5.76891 17.2042 5.63292C17.0954 5.49693 16.9574 5.38714 16.8004 5.31165C16.6434 5.23617 16.4714 5.19692 16.2972 5.1968H4.94464L4.72144 4.1042C4.70461 4.02166 4.65937 3.94764 4.59359 3.89502C4.52781 3.84239 4.44566 3.8145 4.36144 3.8162H0.900039C0.804561 3.8162 0.712994 3.85413 0.645481 3.92164C0.577968 3.98916 0.540039 4.08072 0.540039 4.1762C0.540039 4.27168 0.577968 4.36325 0.645481 4.43076C0.712994 4.49827 0.804561 4.5362 0.900039 4.5362H4.07524L4.29844 5.6288L5.82844 13.1078L6.17224 14.78C6.18907 14.8625 6.23431 14.9366 6.30009 14.9892C6.36587 15.0418 6.44802 15.0697 6.53224 15.068H16.5816C16.6771 15.068 16.7687 15.0301 16.8362 14.9626C16.9037 14.895 16.9416 14.8035 16.9416 14.708C16.9416 14.6125 16.9037 14.521 16.8362 14.4534C16.7687 14.3859 16.6771 14.348 16.5816 14.348H6.81844L6.62224 13.3922H15.6222C15.7037 13.3928 15.783 13.3656 15.8471 13.3153C15.9112 13.2649 15.9563 13.1943 15.975 13.115ZM6.48004 12.6758L5.09224 5.9168H16.2972C16.3638 5.91646 16.4295 5.93117 16.4895 5.95983C16.5495 5.98849 16.6023 6.03036 16.6439 6.0823C16.6854 6.13425 16.7147 6.19492 16.7295 6.25977C16.7442 6.32462 16.7442 6.39198 16.7292 6.4568L15.3342 12.6758H6.48004Z" fill="black"/>
</svg>
